# xmcd
#
# Track frame offsets:
#	150
#	11794
#	24776
#	35599
#	47006
#	60274
#	72637
#	82226
#	95702
#	106400
#
# Disc length: 1623 seconds
#
# Revision: 0
# Processed by: cddbd v1.5.1PL0 Copyright (c) Steve Scherf et al.
# Submitted via: dBpowerAMP V4.0
#
DISCID=8206550a
DTITLE=George Jones - George Jones (Direct Source) [Disc 3]
DYEAR=2005
DGENRE=Country
TTITLE0=She Thinks I Still Care
TTITLE1=Things Have Gone To Pieces
TTITLE2=Take These Chains From My Heart
TTITLE3=White Lightning
TTITLE4=The Window Up Above
TTITLE5=Sometimes You Just Can't Win
TTITLE6=If You Want To Wear A Crown
TTITLE7=Almost Persuaded
TTITLE8=As Long As I Live (With Gene Pitney)
TTITLE9=Soldier's Last Letter
EXTD=
EXTT0=
EXTT1=
EXTT2=
EXTT3=
EXTT4=
EXTT5=
EXTT6=
EXTT7=
EXTT8=
EXTT9=
PLAYORDER=
